<svg xmlns="http://www.w3.org/2000/svg" width="1280" height="720" viewBox="0 0 1280 720">
  <defs>
    <radialGradient id="galaxy" cx="0.62" cy="0.45" r="0.9">
      <stop offset="0" stop-color="#0d1b33"/>
      <stop offset="0.6" stop-color="#080f1f"/>
      <stop offset="1" stop-color="#04070f"/>
    </radialGradient>
    <radialGradient id="star" cx="0.35" cy="0.35" r="1">
      <stop offset="0" stop-color="#ffd98a"/>
      <stop offset="1" stop-color="#e8912d"/>
    </radialGradient>
    <radialGradient id="planetB" cx="0.35" cy="0.35" r="1">
      <stop offset="0" stop-color="#5aa7e8"/>
      <stop offset="1" stop-color="#1c3e6e"/>
    </radialGradient>
    <radialGradient id="planetT" cx="0.35" cy="0.35" r="1">
      <stop offset="0" stop-color="#7ee8c4"/>
      <stop offset="1" stop-color="#1c6e55"/>
    </radialGradient>
  </defs>
  <rect width="1280" height="720" fill="url(#galaxy)"/>
  <g fill="#cfe0ff">
    <circle cx="120" cy="90" r="1.6" opacity="0.9"/><circle cx="340" cy="150" r="1.2" opacity="0.6"/>
    <circle cx="520" cy="70" r="1.4" opacity="0.7"/><circle cx="760" cy="120" r="1.1" opacity="0.5"/>
    <circle cx="980" cy="80" r="1.7" opacity="0.8"/><circle cx="1150" cy="170" r="1.3" opacity="0.6"/>
    <circle cx="220" cy="300" r="1.2" opacity="0.5"/><circle cx="640" cy="620" r="1.4" opacity="0.6"/>
    <circle cx="1080" cy="560" r="1.5" opacity="0.7"/><circle cx="880" cy="660" r="1.1" opacity="0.5"/>
    <circle cx="420" cy="660" r="1.3" opacity="0.6"/><circle cx="90" cy="520" r="1.5" opacity="0.7"/>
  </g>
  <circle cx="800" cy="300" r="46" fill="url(#star)"/>
  <circle cx="800" cy="300" r="60" fill="none" stroke="#ffd98a" stroke-width="1" opacity="0.35" stroke-dasharray="4 8"/>
  <circle cx="560" cy="240" r="26" fill="url(#planetB)"/>
  <circle cx="560" cy="240" r="46" fill="none" stroke="#5aa7e8" stroke-width="1.5" opacity="0.5" stroke-dasharray="6 6"/>
  <circle cx="660" cy="430" r="20" fill="url(#planetT)"/>
  <circle cx="660" cy="430" r="38" fill="none" stroke="#7ee8c4" stroke-width="1.5" opacity="0.5" stroke-dasharray="6 6"/>
  <circle cx="980" cy="440" r="30" fill="url(#planetB)"/>
  <circle cx="980" cy="440" r="52" fill="none" stroke="#5aa7e8" stroke-width="1.5" opacity="0.45" stroke-dasharray="6 6"/>
  <g stroke="#3a5a8c" stroke-width="1.2" opacity="0.55">
    <path d="M586 256 L600 330 L648 416"/>
    <path d="M640 226 L754 292"/>
    <path d="M686 424 L790 410"/>
    <path d="M950 416 L820 330"/>
  </g>
  <text x="100" y="120" font-family="sans-serif" font-size="58" font-weight="700" fill="#ffffff">Stellaris Web</text>
  <text x="100" y="180" font-family="sans-serif" font-size="26" fill="#8fb0e0">网页版 3D 星系争夺 · 占领 / 产出 / 对抗</text>
  <text x="100" y="640" font-family="sans-serif" font-size="18" fill="#5a7aa8">封面占位图 · 建议替换为 15 秒真实玩法 GIF 或截图合成</text>
</svg>
