<svg xmlns="http://www.w3.org/2000/svg" width="1280" height="720" viewBox="0 0 1280 720">
  <defs>
    <linearGradient id="sky" x1="0" y1="0" x2="0" y2="1">
      <stop offset="0" stop-color="#0a0f22"/>
      <stop offset="1" stop-color="#0d1a2e"/>
    </linearGradient>
    <linearGradient id="grid" x1="0" y1="0" x2="0" y2="1">
      <stop offset="0" stop-color="#1f4d7a" stop-opacity="0"/>
      <stop offset="1" stop-color="#1f4d7a" stop-opacity="0.7"/>
    </linearGradient>
  </defs>
  <rect width="1280" height="720" fill="url(#sky)"/>
  <circle cx="1020" cy="130" r="52" fill="#dff3ff" opacity="0.9"/>
  <circle cx="1002" cy="118" r="52" fill="#0a0f22"/>
  <g fill="#cfe0ff" opacity="0.8">
    <circle cx="180" cy="90" r="1.6"/><circle cx="420" cy="60" r="1.2"/><circle cx="760" cy="110" r="1.4"/>
    <circle cx="1200" cy="240" r="1.3"/><circle cx="90" cy="260" r="1.2"/><circle cx="620" cy="80" r="1.1"/>
  </g>
  <!-- 赛博地平线网格 -->
  <g stroke="#2e6ea8" stroke-width="1.2" opacity="0.5">
    <line x1="0" y1="480" x2="1280" y2="480"/>
    <line x1="0" y1="530" x2="1280" y2="530"/>
    <line x1="0" y1="600" x2="1280" y2="600"/>
    <line x1="0" y1="700" x2="1280" y2="700"/>
    <line x1="140" y1="480" x2="20" y2="720"/>
    <line x1="420" y1="480" x2="360" y2="720"/>
    <line x1="640" y1="480" x2="640" y2="720"/>
    <line x1="860" y1="480" x2="920" y2="720"/>
    <line x1="1140" y1="480" x2="1260" y2="720"/>
  </g>
  <rect y="480" width="1280" height="240" fill="url(#grid)" opacity="0.35"/>
  <!-- 赛博墓碑 -->
  <g transform="translate(560,300)">
    <path d="M0 260 L0 80 Q0 0 80 0 Q160 0 160 80 L160 260 Z" fill="#101c30" stroke="#38e0c8" stroke-width="3"/>
    <text x="80" y="105" text-anchor="middle" font-family="monospace" font-size="44" font-weight="700" fill="#38e0c8">404</text>
    <line x1="28" y1="140" x2="132" y2="140" stroke="#2c4f7c" stroke-width="2"/>
    <text x="80" y="176" text-anchor="middle" font-family="sans-serif" font-size="17" fill="#7fd4a8">本人在线</text>
    <text x="80" y="204" text-anchor="middle" font-family="sans-serif" font-size="15" fill="#4d7ba3">只是提前装修</text>
    <g fill="#ffd60a">
      <rect x="66" y="228" width="10" height="10" transform="rotate(45 71 233)"/>
      <circle cx="112" cy="233" r="5"/>
    </g>
  </g>
  <!-- 供品与信号 -->
  <g font-size="26" text-anchor="middle">
    <text x="470" y="560">☕</text>
    <text x="520" y="572">🌸</text>
    <text x="880" y="562">⌨</text>
  </g>
  <g stroke="#ffd60a" stroke-width="4" stroke-linecap="round" opacity="0.9">
    <line x1="180" y1="560" x2="180" y2="540"/>
    <line x1="196" y1="560" x2="196" y2="528"/>
    <line x1="212" y1="560" x2="212" y2="516"/>
  </g>
  <text x="100" y="120" font-family="sans-serif" font-size="56" font-weight="700" fill="#eef4fb">墓前在线</text>
  <text x="100" y="176" font-family="sans-serif" font-size="25" fill="#7fb7e8">微信社交小游戏 · 为活着的朋友，提前留一块永不掉线的纪念地</text>
  <text x="100" y="660" font-family="sans-serif" font-size="17" fill="#4d7ba3">Unity 6000.4 小游戏转译 · 原型可玩 · Unity 切片开发中</text>
</svg>
